# xmcd CD database file
#
# Track frame offsets:
#	150
#	18768
#	34882
#	49395
#	66532
#	82207
#	97095
#	109695
#	125970
#	140154
#	154189
#	170614
#	187109
#
# Disc length: 2710 seconds
#
# Revision: 0
# Processed by: cddbd v1.5.2PL0 Copyright (c) Steve Scherf et al.
# Submitted via: CDex 1.77
#
DISCID=cb0a940d
DTITLE=Friend `n Fellow - Lady
DYEAR=2009
DGENRE=Jazz
TTITLE0=Time
TTITLE1=Strange Lady
TTITLE2=Secrets
TTITLE3=Moon, Sun, Heart'n Star
TTITLE4=My Baby Just Cares
TTITLE5=Falling Rain
TTITLE6=Lying Show
TTITLE7=Barefoot
TTITLE8=Labyrinth
TTITLE9=Your True Face
TTITLE10=Dive In
TTITLE11=Step By Step
TTITLE12=Crystal II
EXTD=YEAR: 2009
EXTT0=
EXTT1=
EXTT2=
EXTT3=
EXTT4=
EXTT5=
EXTT6=
EXTT7=
EXTT8=
EXTT9=
EXTT10=
EXTT11=
EXTT12=
PLAYORDER=
